<?xml version="1.0" encoding="UTF-8"?>
<svg version="1.1" xmlns="http://www.w3.org/2000/svg" width="512" height="512">
<path d="M0 0 C0.02505615 0.96413818 0.0501123 1.92827637 0.07592773 2.92163086 C0.16985306 6.48687842 0.27010939 10.05192433 0.37231445 13.61694336 C0.41571985 15.16214289 0.45739071 16.70739214 0.49731445 18.25268555 C0.55488199 20.46939096 0.61861424 22.6858448 0.68359375 24.90234375 C0.70866249 25.94454323 0.70866249 25.94454323 0.73423767 27.00779724 C0.56502856 30.28762029 0.56502856 30.28762029 2 33 C2.08737645 34.85369611 2.10698153 36.71067541 2.09765625 38.56640625 C2.09443359 39.69111328 2.09121094 40.81582031 2.08789062 41.97460938 C2.07951172 43.15861328 2.07113281 44.34261719 2.0625 45.5625 C2.05798828 46.75037109 2.05347656 47.93824219 2.04882812 49.16210938 C2.03699675 52.10812226 2.02051287 55.05403681 2 58 C2.66 58 3.32 58 4 58 C4.04898437 59.258125 4.09796875 60.51625 4.1484375 61.8125 C4.49952826 70.06921416 4.9107709 78.24923516 6.0625 86.4375 C7.00976439 93.3349881 7.21430834 100.04688494 7 107 C7.66 107 8.32 107 9 107 C9 110.63 9 114.26 9 118 C9.66 118 10.32 118 11 118 C11 121.63 11 125.26 11 129 C11.66 129 12.32 129 13 129 C13.12375 130.010625 13.2475 131.02125 13.375 132.0625 C13.8977863 135.95741309 13.8977863 135.95741309 15.0625 139.4375 C16.13771707 143.52332486 16.14753192 146.79534017 16 151 C16.66 151 17.32 151 18 151 C18 152.65 18 154.3 18 156 C18.66 156 19.32 156 20 156 C20 157.98 20 159.96 20 162 C20.66 162 21.32 162 22 162 C22 163.65 22 165.3 22 167 C22.66 167 23.32 167 24 167 C27 173.5 27 173.5 27 178 C27.66 178 28.32 178 29 178 C29 179.32 29 180.64 29 182 C29.66 182 30.32 182 31 182 C31 182.99 31 183.98 31 185 C31.66 185 32.32 185 33 185 C33 186.32 33 187.64 33 189 C33.66 189 34.32 189 35 189 C35.33 190.65 35.66 192.3 36 194 C36.66 194 37.32 194 38 194 C38 194.66 38 195.32 38 196 C38.66 196 39.32 196 40 196 C40 196.66 40 197.32 40 198 C40.66 198 41.32 198 42 198 C42 198.66 42 199.32 42 200 C42.66 200 43.32 200 44 200 C47 204.38461538 47 204.38461538 47 207 C48.32 207 49.64 207 51 207 C51 207.66 51 208.32 51 209 C51.66 209 52.32 209 53 209 C53 209.66 53 210.32 53 211 C53.99 211.33 54.98 211.66 56 212 C56 212.66 56 213.32 56 214 C56.66 214 57.32 214 58 214 C58 214.66 58 215.32 58 216 C59.32 216 60.64 216 62 216 C62 216.66 62 217.32 62 218 C62.66 218 63.32 218 64 218 C64 218.66 64 219.32 64 220 C64.99 220 65.98 220 67 220 C67 220.66 67 221.32 67 222 C68.60875 222.185625 68.60875 222.185625 70.25 222.375 C73.37863615 222.89643936 75.33480424 223.40088254 78 225 C78 225.66 78 226.32 78 227 C79.32 227 80.64 227 82 227 C82 227.66 82 228.32 82 229 C83.32 229 84.64 229 86 229 C86 229.66 86 230.32 86 231 C87.155 231.103125 88.31 231.20625 89.5 231.3125 C93.31191901 231.77638432 96.49458694 232.86352044 100.03515625 234.30078125 C102.99845557 235.3553152 105.87870828 235.67486545 109 236 C109 236.66 109 237.32 109 238 C111.31 238 113.62 238 116 238 C116 238.66 116 239.32 116 240 C118.64 240 121.28 240 124 240 C124 240.66 124 241.32 124 242 C124.68964844 241.98839844 125.37929688 241.97679687 126.08984375 241.96484375 C141.63122476 241.81561238 141.63122476 241.81561238 146 244 C148.0374763 244.22858114 150.08040303 244.41024278 152.125 244.5625 C153.22070312 244.64628906 154.31640625 244.73007813 155.4453125 244.81640625 C156.28835938 244.87699219 157.13140625 244.93757812 158 245 C158 245.66 158 246.32 158 247 C159.14339844 246.98839844 160.28679687 246.97679687 161.46484375 246.96484375 C162.95572754 246.95546712 164.44661309 246.94636679 165.9375 246.9375 C166.69224609 246.92912109 167.44699219 246.92074219 168.22460938 246.91210938 C170.14994313 246.90347559 172.07535581 246.94775667 174 247 C174.33 247.33 174.66 247.66 175 248 C176.48638992 248.15655027 177.97949127 248.25066943 179.47265625 248.31640625 C180.37177734 248.35830078 181.27089844 248.40019531 182.19726562 248.44335938 C183.14279297 248.48267578 184.08832031 248.52199219 185.0625 248.5625 C186.4865918 248.62727539 186.4865918 248.62727539 187.93945312 248.69335938 C190.29281353 248.79979276 192.64628354 248.90181008 195 249 C195 249.66 195 250.32 195 251 C195.62640381 250.99476318 196.25280762 250.98952637 196.89819336 250.98413086 C209.27512684 250.89544354 221.63062628 250.96234438 234 251.4375 C235.08531006 251.47673584 236.17062012 251.51597168 237.28881836 251.55639648 C238.2866333 251.59837158 239.28444824 251.64034668 240.3125 251.68359375 C241.63701172 251.73858032 241.63701172 251.73858032 242.98828125 251.79467773 C245 252 245 252 246 253 C246.1328125 254.8125 246.1328125 254.8125 246.125 257 C246.12757813 257.721875 246.13015625 258.44375 246.1328125 259.1875 C246 261 246 261 245 262 C242.07696615 262.25187845 239.17948456 262.43179373 236.25 262.5625 C235.34290283 262.6049585 234.43580566 262.64741699 233.5012207 262.69116211 C220.67483753 263.22146012 207.83419733 263.08745391 195 263 C195 263.66 195 264.32 195 265 C194.39937744 265.02505615 193.79875488 265.0501123 193.17993164 265.07592773 C190.47388563 265.1915528 187.76821717 265.31442936 185.0625 265.4375 C184.11697266 265.47681641 183.17144531 265.51613281 182.19726562 265.55664062 C181.29814453 265.59853516 180.39902344 265.64042969 179.47265625 265.68359375 C178.64000244 265.72025146 177.80734863 265.75690918 176.94946289 265.79467773 C174.99661142 265.79367103 174.99661142 265.79367103 174 267 C171.30345146 267.07319621 168.63308542 267.09242537 165.9375 267.0625 C165.17888672 267.05798828 164.42027344 267.05347656 163.63867188 267.04882812 C161.75908129 267.0370068 159.87953101 267.01907078 158 267 C158 267.66 158 268.32 158 269 C157.15695312 269.06058594 156.31390625 269.12117188 155.4453125 269.18359375 C153.80175781 269.30927734 153.80175781 269.30927734 152.125 269.4375 C151.03445313 269.51871094 149.94390625 269.59992188 148.8203125 269.68359375 C146.05271029 269.83001703 146.05271029 269.83001703 144 271 C137.30048984 271.95707288 130.76046157 272.11372739 124 272 C124 272.66 124 273.32 124 274 C121.36 274 118.72 274 116 274 C116 274.66 116 275.32 116 276 C113.69 276 111.38 276 109 276 C109 276.66 109 277.32 109 278 C108.01 278.103125 107.02 278.20625 106 278.3125 C103.15285243 278.70777803 100.7233933 279.41983539 98.0625 280.5 C94.03719735 282.11484744 90.31126252 282.61506585 86 283 C86 283.66 86 284.32 86 285 C84.68 285 83.36 285 82 285 C82 285.66 82 286.32 82 287 C80.68 287 79.36 287 78 287 C78 287.66 78 288.32 78 289 C71.5 292 71.5 292 67 292 C67 292.66 67 293.32 67 294 C66.01 294 65.02 294 64 294 C64 294.66 64 295.32 64 296 C63.34 296 62.68 296 62 296 C62 296.66 62 297.32 62 298 C60.68 298 59.36 298 58 298 C58 298.66 58 299.32 58 300 C57.34 300 56.68 300 56 300 C55.67 300.99 55.34 301.98 55 303 C54.34 303 53.68 303 53 303 C53 303.66 53 304.32 53 305 C52.34 305 51.68 305 51 305 C51 305.66 51 306.32 51 307 C49.68 307 48.36 307 47 307 C46.690625 307.78375 46.38125 308.5675 46.0625 309.375 C45 312 45 312 44 314 C43.34 314 42.68 314 42 314 C42 314.66 42 315.32 42 316 C41.34 316 40.68 316 40 316 C40 316.66 40 317.32 40 318 C39.34 318 38.68 318 38 318 C38 318.66 38 319.32 38 320 C37.34 320 36.68 320 36 320 C35.67 321.65 35.34 323.3 35 325 C34.34 325 33.68 325 33 325 C33 326.32 33 327.64 33 329 C32.34 329 31.68 329 31 329 C31 329.99 31 330.98 31 332 C30.34 332 29.68 332 29 332 C29 333.32 29 334.64 29 336 C28.34 336 27.68 336 27 336 C26.87625 336.886875 26.7525 337.77375 26.625 338.6875 C26.05587264 341.70387502 25.23385564 344.20326054 24 347 C23.34 347 22.68 347 22 347 C22 348.65 22 350.3 22 352 C21.34 352 20.68 352 20 352 C20 353.98 20 355.96 20 358 C19.34 358 18.68 358 18 358 C18 359.65 18 361.3 18 363 C17.34 363 16.68 363 16 363 C16.0928125 364.546875 16.0928125 364.546875 16.1875 366.125 C16.22233544 372.55794379 14.46876321 378.77524163 13 385 C12.34 385 11.68 385 11 385 C11 388.63 11 392.26 11 396 C10.34 396 9.68 396 9 396 C9 399.63 9 403.26 9 407 C8.34 407 7.68 407 7 407 C7.02320313 407.7528125 7.04640625 408.505625 7.0703125 409.28125 C7.18711654 416.15600188 6.74359446 422.72023129 5.78613281 429.52734375 C4.60436113 438.30862231 4.34442816 447.15363474 4 456 C3.34 456 2.68 456 2 456 C2.00785522 457.1281311 2.00785522 457.1281311 2.01586914 458.27905273 C2.03657227 461.66519342 2.04963877 465.05132084 2.0625 468.4375 C2.07087891 469.62150391 2.07925781 470.80550781 2.08789062 472.02539062 C2.09272461 473.71245117 2.09272461 473.71245117 2.09765625 475.43359375 C2.10551147 476.99678345 2.10551147 476.99678345 2.11352539 478.59155273 C2 481 2 481 1 482 C0.84141158 484.14386657 0.74870702 486.29266838 0.68359375 488.44140625 C0.64169922 489.74658203 0.59980469 491.05175781 0.55664062 492.39648438 C0.51682392 493.7851533 0.47711175 495.17382522 0.4375 496.5625 C0.39432011 497.95509183 0.350706 499.34767028 0.30664062 500.74023438 C0.20014124 504.16004801 0.09813077 507.57993763 0 511 C-2.97 511 -5.94 511 -9 511 C-9 502.42 -9 493.84 -9 485 C-9.66 485 -10.32 485 -11 485 C-11.03758423 483.69011108 -11.03758423 483.69011108 -11.07592773 482.35375977 C-11.17087709 479.12397448 -11.27012029 475.89435846 -11.37231445 472.66479492 C-11.41571434 471.26510801 -11.45738564 469.86536641 -11.49731445 468.46557617 C-11.55489445 466.45738505 -11.61914 464.44938851 -11.68359375 462.44140625 C-11.72025146 461.23170166 -11.75690918 460.02199707 -11.79467773 458.77563477 C-11.68938266 456.09294544 -11.68938266 456.09294544 -13 455 C-13.24512768 452.14017701 -13.42775465 449.30312136 -13.5625 446.4375 C-13.6049585 445.59082764 -13.64741699 444.74415527 -13.69116211 443.87182617 C-14.06071751 435.91039828 -14.09892053 427.96859833 -14 420 C-14.66 420 -15.32 420 -16 420 C-16 416.37 -16 412.74 -16 409 C-16.66 409 -17.32 409 -18 409 C-18 404.71 -18 400.42 -18 396 C-18.66 396 -19.32 396 -20 396 C-20 392.37 -20 388.74 -20 385 C-20.66 385 -21.32 385 -22 385 C-22.50780894 382.79344925 -23.00591365 380.58466395 -23.5 378.375 C-23.7784375 377.14523437 -24.056875 375.91546875 -24.34375 374.6484375 C-24.94091621 371.32847772 -25.12409534 368.36091549 -25 365 C-25.66 365 -26.32 365 -27 365 C-27 362.69 -27 360.38 -27 358 C-27.66 358 -28.32 358 -29 358 C-29 356.02 -29 354.04 -29 352 C-29.66 352 -30.32 352 -31 352 C-31 350.35 -31 348.7 -31 347 C-31.66 347 -32.32 347 -33 347 C-33.33 344.69 -33.66 342.38 -34 340 C-34.66 340 -35.32 340 -36 340 C-36 338.68 -36 337.36 -36 336 C-36.66 336 -37.32 336 -38 336 C-38 334.68 -38 333.36 -38 332 C-38.66 332 -39.32 332 -40 332 C-40 331.01 -40 330.02 -40 329 C-40.66 329 -41.32 329 -42 329 C-45 323.375 -45 323.375 -45 320 C-45.66 320 -46.32 320 -47 320 C-47 319.34 -47 318.68 -47 318 C-47.66 318 -48.32 318 -49 318 C-49 317.34 -49 316.68 -49 316 C-49.66 316 -50.32 316 -51 316 C-54 311.61538462 -54 311.61538462 -54 309 C-54.66 309 -55.32 309 -56 309 C-56 308.34 -56 307.68 -56 307 C-56.66 307 -57.32 307 -58 307 C-58 306.34 -58 305.68 -58 305 C-59.32 305 -60.64 305 -62 305 C-63.75 303.625 -63.75 303.625 -65 302 C-65 301.34 -65 300.68 -65 300 C-65.66 300 -66.32 300 -67 300 C-67 299.34 -67 298.68 -67 298 C-68.32 298 -69.64 298 -71 298 C-71 297.34 -71 296.68 -71 296 C-71.99 296 -72.98 296 -74 296 C-74 295.34 -74 294.68 -74 294 C-74.66 294 -75.32 294 -76 294 C-76 293.34 -76 292.68 -76 292 C-76.886875 291.87625 -77.77375 291.7525 -78.6875 291.625 C-81.70387502 291.05587264 -84.20326054 290.23385564 -87 289 C-87 288.34 -87 287.68 -87 287 C-88.32 287 -89.64 287 -91 287 C-91 286.34 -91 285.68 -91 285 C-92.65 285 -94.3 285 -96 285 C-96 284.34 -96 283.68 -96 283 C-96.99 282.896875 -97.98 282.79375 -99 282.6875 C-102.58699931 282.18850211 -105.65288281 281.03937309 -109 279.69921875 C-111.97930856 278.65762455 -114.86734298 278.32631844 -118 278 C-118 277.34 -118 276.68 -118 276 C-120.31 276 -122.62 276 -125 276 C-125 275.34 -125 274.68 -125 274 C-127.64 274 -130.28 274 -133 274 C-133 273.34 -133 272.68 -133 272 C-133.60585937 272.01160156 -134.21171875 272.02320313 -134.8359375 272.03515625 C-140.9180348 272.10065576 -146.98405933 271.98442666 -153 271 C-153.33 270.67 -153.66 270.34 -154 270 C-156.18292774 269.76518307 -158.37203174 269.58636677 -160.5625 269.4375 C-161.76003906 269.35371094 -162.95757812 269.26992188 -164.19140625 269.18359375 C-165.11824219 269.12300781 -166.04507813 269.06242187 -167 269 C-167 268.34 -167 267.68 -167 267 C-168.14339844 267.01160156 -169.28679687 267.02320313 -170.46484375 267.03515625 C-171.95572754 267.04453288 -173.44661309 267.05363321 -174.9375 267.0625 C-175.69224609 267.07087891 -176.44699219 267.07925781 -177.22460938 267.08789062 C-179.14994313 267.09652441 -181.07535581 267.05224333 -183 267 C-183.33 266.67 -183.66 266.34 -184 266 C-185.40197402 265.85578846 -186.81042831 265.77313876 -188.21875 265.71875 C-189.06824219 265.68136719 -189.91773438 265.64398438 -190.79296875 265.60546875 C-192.13294922 265.55326172 -192.13294922 265.55326172 -193.5 265.5 C-195.26059038 265.43140557 -197.02102741 265.35871048 -198.78125 265.28125 C-199.56564453 265.25095703 -200.35003906 265.22066406 -201.15820312 265.18945312 C-203 265 -203 265 -204 264 C-205.49592438 263.85341344 -206.99835908 263.77246444 -208.50048828 263.71875 C-209.45883575 263.68201172 -210.41718323 263.64527344 -211.40457153 263.60742188 C-212.44926605 263.57197266 -213.49396057 263.53652344 -214.5703125 263.5 C-215.63990204 263.45939453 -216.70949158 263.41878906 -217.81149292 263.37695312 C-221.2491776 263.24677691 -224.6870451 263.12281837 -228.125 263 C-231.54151315 262.87681305 -234.95794324 262.75218033 -238.37423706 262.62304688 C-240.50327593 262.54265236 -242.63244755 262.46568078 -244.76174927 262.39257812 C-249.91347593 262.19890858 -254.91439749 261.8545735 -260 261 C-260 258.36 -260 255.72 -260 253 C-253.88408684 251.97229536 -247.82525562 251.71259741 -241.6328125 251.5 C-239.42708171 251.41670953 -237.2213526 251.33337492 -235.015625 251.25 C-231.55245873 251.12356381 -228.08924083 250.99872253 -224.62597656 250.875 C-221.27392794 250.75396693 -217.92213008 250.62724706 -214.5703125 250.5 C-213.52561798 250.46455078 -212.48092346 250.42910156 -211.40457153 250.39257812 C-209.96705032 250.3374707 -209.96705032 250.3374707 -208.50048828 250.28125 C-207.65334259 250.25095703 -206.8061969 250.22066406 -205.93338013 250.18945312 C-203.99436363 250.20595584 -203.99436363 250.20595584 -203 249 C-201.59802598 248.85578846 -200.18957169 248.77313876 -198.78125 248.71875 C-197.93175781 248.68136719 -197.08226562 248.64398438 -196.20703125 248.60546875 C-193.5 248.5 -193.5 248.5 -190.79296875 248.39453125 C-189.94347656 248.35714844 -189.09398437 248.31976563 -188.21875 248.28125 C-187.43435547 248.25095703 -186.64996094 248.22066406 -185.84179688 248.18945312 C-183.98373804 248.19408532 -183.98373804 248.19408532 -183 247 C-180.30345146 246.92680379 -177.63308542 246.90757463 -174.9375 246.9375 C-174.17888672 246.94201172 -173.42027344 246.94652344 -172.63867188 246.95117188 C-170.75908129 246.9629932 -168.87953101 246.98092922 -167 247 C-167 246.34 -167 245.68 -167 245 C-166.07316406 244.93941406 -165.14632812 244.87882813 -164.19140625 244.81640625 C-162.99386719 244.73261719 -161.79632813 244.64882812 -160.5625 244.5625 C-159.36753906 244.48128906 -158.17257813 244.40007812 -156.94140625 244.31640625 C-154.11429756 244.32343886 -154.11429756 244.32343886 -153 243 C-146.37811792 241.9164193 -139.69129449 241.87186883 -133 242 C-133 241.34 -133 240.68 -133 240 C-130.36 240 -127.72 240 -125 240 C-125 239.34 -125 238.68 -125 238 C-122.69 238 -120.38 238 -118 238 C-118 237.34 -118 236.68 -118 236 C-116.515 235.8453125 -116.515 235.8453125 -115 235.6875 C-112.16616375 235.29486004 -109.76755838 234.58780014 -107.125 233.5 C-102.81910065 231.76919732 -98.60448436 231.30909733 -94 231 C-94 230.34 -94 229.68 -94 229 C-93.01 229 -92.02 229 -91 229 C-91 228.34 -91 227.68 -91 227 C-89.68 227 -88.36 227 -87 227 C-87 226.34 -87 225.68 -87 225 C-80.5 222 -80.5 222 -76 222 C-76 221.34 -76 220.68 -76 220 C-75.01 220 -74.02 220 -73 220 C-73 219.34 -73 218.68 -73 218 C-72.34 218 -71.68 218 -71 218 C-71 217.34 -71 216.68 -71 216 C-69.68 216 -68.36 216 -67 216 C-67 215.34 -67 214.68 -67 214 C-66.34 214 -65.68 214 -65 214 C-65 213.34 -65 212.68 -65 212 C-63.625 210.375 -63.625 210.375 -62 209 C-61.34 209 -60.68 209 -60 209 C-60 208.34 -60 207.68 -60 207 C-58.68 207 -57.36 207 -56 207 C-56 206.34 -56 205.68 -56 205 C-55.34 205 -54.68 205 -54 205 C-53.87625 204.401875 -53.7525 203.80375 -53.625 203.1875 C-53 201 -53 201 -51 198 C-50.34 198 -49.68 198 -49 198 C-49 197.34 -49 196.68 -49 196 C-48.34 196 -47.68 196 -47 196 C-47 195.34 -47 194.68 -47 194 C-46.34 194 -45.68 194 -45 194 C-44.67 192.35 -44.34 190.7 -44 189 C-43.34 189 -42.68 189 -42 189 C-42 187.68 -42 186.36 -42 185 C-41.34 185 -40.68 185 -40 185 C-40 184.01 -40 183.02 -40 182 C-39.34 182 -38.68 182 -38 182 C-38 180.68 -38 179.36 -38 178 C-37.34 178 -36.68 178 -36 178 C-36 176.68 -36 175.36 -36 174 C-35.34 174 -34.68 174 -34 174 C-33.87625 172.7625 -33.7525 171.525 -33.625 170.25 C-33.24253695 167.1237803 -32.69450477 164.71120763 -31 162 C-30.34 162 -29.68 162 -29 162 C-29 160.02 -29 158.04 -29 156 C-28.34 156 -27.68 156 -27 156 C-27 154.35 -27 152.7 -27 151 C-26.34 151 -25.68 151 -25 151 C-25.061875 149.96875 -25.12375 148.9375 -25.1875 147.875 C-25.22233544 141.44205621 -23.46876321 135.22475837 -22 129 C-21.34 129 -20.68 129 -20 129 C-20 125.37 -20 121.74 -20 118 C-19.34 118 -18.68 118 -18 118 C-18 114.37 -18 110.74 -18 107 C-17.34 107 -16.68 107 -16 107 C-16 105.68 -16 104.36 -16 103 C-16.66 103 -17.32 103 -18 103 C-18 102.01 -18 101.02 -18 100 C-17.34 100 -16.68 100 -16 100 C-16 98.02 -16 96.04 -16 94 C-15.34 94 -14.68 94 -14 94 C-14.01160156 93.06542969 -14.02320313 92.13085938 -14.03515625 91.16796875 C-14.08931258 83.28435407 -13.95740017 75.43727401 -13.5625 67.5625 C-13.52326416 66.72807373 -13.48402832 65.89364746 -13.44360352 65.03393555 C-13.12262457 59.12262457 -13.12262457 59.12262457 -12 58 C-11.85427264 56.15962866 -11.77272082 54.31409286 -11.71875 52.46875 C-11.68136719 51.34855469 -11.64398438 50.22835937 -11.60546875 49.07421875 C-11.57066406 47.89472656 -11.53585938 46.71523438 -11.5 45.5 C-11.43145099 43.17695034 -11.35876469 40.85401778 -11.28125 38.53125 C-11.25095703 37.49548828 -11.22066406 36.45972656 -11.18945312 35.39257812 C-11 33 -11 33 -10 32 C-9.84028023 29.62661361 -9.7407567 27.27881728 -9.68359375 24.90234375 C-9.6524221 23.83905602 -9.6524221 23.83905602 -9.62062073 22.75428772 C-9.55505402 20.48212695 -9.4962077 18.20984736 -9.4375 15.9375 C-9.39432151 14.40037817 -9.35070745 12.8632685 -9.30664062 11.32617188 C-9.19936551 7.5509041 -9.09811863 3.7755164 -9 0 C-5.93109813 -1.53445094 -3.29905734 -0.54984289 0 0 Z " fill="#9998B7" transform="translate(260,1)"/>
<path d="M0 0 C0.66 0 1.32 0 2 0 C2.05945801 1.36088745 2.05945801 1.36088745 2.12011719 2.74926758 C2.90796847 20.11137696 3.94165487 37.41139363 5.875 54.6875 C5.95004761 55.38823639 6.02509521 56.08897278 6.10241699 56.8109436 C8.39080578 77.92073975 12.65063429 103.05200849 29 118 C29.350625 118.721875 29.70125 119.44375 30.0625 120.1875 C31.31691469 122.61270173 32.5284283 122.82150223 35 124 C36.01449219 124.58394531 37.02898437 125.16789062 38.07421875 125.76953125 C52.89618017 134.23892731 68.22231954 137.64518177 85 140 C86.02528809 140.1561377 87.05057617 140.31227539 88.10693359 140.47314453 C100.47859724 142.26872923 112.90576433 142.94090232 125.37695312 143.67724609 C128.25969525 143.84951212 131.14151359 144.03336845 134.0234375 144.21875 C134.91179291 144.26777466 135.80014832 144.31679932 136.71542358 144.36730957 C138.81632835 144.50554858 140.91033371 144.74269533 143 145 C143.33 145.66 143.66 146.32 144 147 C142.81374023 147.06993164 141.62748047 147.13986328 140.40527344 147.21191406 C78.94662881 147.9349423 78.94662881 147.9349423 26.5625 175.375 C13.65284754 190.89559341 9.72603226 210.55294511 7 230 C6.8453125 231.02456299 6.690625 232.04912598 6.53125 233.10473633 C4.88601226 244.51072371 4.12851628 255.94446433 3.375 267.4375 C3.2400309 269.44078541 3.1046172 271.44404092 2.96875 273.44726562 C2.6407175 278.29784832 2.31866677 283.14879338 2 288 C1.34 288 0.68 288 0 288 C-0.06993164 286.8440332 -0.13986328 285.68806641 -0.21191406 284.49707031 C-1.31759706 225.70130923 -1.31759706 225.70130923 -25.71875 174.12890625 C-43.76351373 158.26059428 -67.09675819 153.36136421 -90.3125 150.875 C-91.04070953 150.79350708 -91.76891907 150.71201416 -92.51919556 150.62805176 C-109.96475282 148.68335206 -127.46868766 147.76595379 -145 147 C-145 146.34 -145 145.68 -145 145 C-143.63911255 144.94054199 -143.63911255 144.94054199 -142.25073242 144.87988281 C-124.88862304 144.09203153 -107.58860637 143.05834513 -90.3125 141.125 C-89.61176361 141.04995239 -88.91102722 140.97490479 -88.1890564 140.89758301 C-64.00028967 138.27542114 -38.19282483 132.62255509 -22 113 C-9.96687427 95.84339496 -6.06358447 75.12280542 -3.875 54.6875 C-3.79350708 53.95929047 -3.71201416 53.23108093 -3.62805176 52.48080444 C-1.68335206 35.03524718 -0.76595379 17.53131234 0 0 Z " fill="#242123" transform="translate(255,110)"/>
</svg>
